<svg width="18" height="18" viewBox="0 0 18 18" fill="none" xmlns="http://www.w3.org/2000/svg">
  <path fill-rule="evenodd" clip-rule="evenodd"
    d="M2 5C2.55228 5 3 4.55228 3 4C3 3.44772 2.55228 3 2 3C1.44772 3 1 3.44772 1 4C1 4.55228 1.44772 5 2 5ZM2 10C2.55228 10 3 9.55228 3 9C3 8.44772 2.55228 8 2 8C1.44772 8 1 8.44772 1 9C1 9.55228 1.44772 10 2 10ZM3 14C3 14.5523 2.55228 15 2 15C1.44772 15 1 14.5523 1 14C1 13.4477 1.44772 13 2 13C2.55228 13 3 13.4477 3 14ZM6 3C5.44772 3 5 3.44772 5 4C5 4.55228 5.44771 5 6 5H16C16.5523 5 17 4.55228 17 4C17 3.44772 16.5523 3 16 3H6ZM5 9C5 8.44772 5.44772 8 6 8H16C16.5523 8 17 8.44772 17 9C17 9.55228 16.5523 10 16 10H6C5.44771 10 5 9.55228 5 9ZM6 13C5.44772 13 5 13.4477 5 14C5 14.5523 5.44771 15 6 15H16C16.5523 15 17 14.5523 17 14C17 13.4477 16.5523 13 16 13H6Z"
    fill="#116DFF" />
</svg>
